# xmcd
#
# Track frame offsets: 
#        150
#        24198
#        44730
#        64546
#        91838
#        106771
#        118503
#        142908
#        164797
#
# Disc length: 2477 seconds
#
# Revision: 0
# Processed by: cddbd v1.5.1PL2 Copyright (c) Steve Scherf et al.
# Submitted via: ExactAudioCopy v0.95a3
#
DISCID=6e09ab09
DTITLE=Rakovics István és barátai - Meggyógyít a blues
DYEAR=1997
DGENRE=Rock
TTITLE0=Vadló
TTITLE1=Szakadt farmer blues
TTITLE2=Meggyógyít a blues
TTITLE3=Te csak játszd a bluest
TTITLE4=Garázs blues
TTITLE5=Kellesz nekem bébi
TTITLE6=Tied ez a tánc
TTITLE7=Tisztelet Carlos Santanának
TTITLE8=Visszatérsz
EXTD=
EXTT0=
EXTT1=
EXTT2=
EXTT3=
EXTT4=
EXTT5=
EXTT6=
EXTT7=
EXTT8=
PLAYORDER=
